<?xml version="1.0" encoding="iso-8859-1"?>
<!-- Generator: Adobe Illustrator 16.0.0, SVG Export Plug-In . SVG Version: 6.00 Build 0)  -->
<!DOCTYPE svg PUBLIC "-//W3C//DTD SVG 1.1//EN" "http://www.w3.org/Graphics/SVG/1.1/DTD/svg11.dtd">
<svg version="1.1" xmlns="http://www.w3.org/2000/svg"  x="0px" y="0px" width="682px"
	 height="682px" viewBox="0 0 682 682" style="enable-background:new 0 0 682 682;" xml:space="preserve">
<g id="Shape_1_1_" style="enable-background:new    ;">
	<g id="Shape_1">
		<g>
			<path style="fill-rule:evenodd;clip-rule:evenodd;fill:#3498DB;" d="M681.806,204.787l-139.718-59.92L485.667,3.698
				L344.503,60.117L204.789,0.193l-59.924,139.713L3.701,196.326l56.42,141.166L0.192,477.208l139.719,59.925l56.42,141.167
				l141.159-56.418l139.719,59.925l59.924-139.716l141.164-56.419l-56.42-141.167L681.806,204.787z M583.619,445.063
				l-101.543,40.583l-43.1,100.497l-100.503-43.103L236.94,583.62l-40.583-101.542L95.858,438.974l43.106-100.496L98.381,236.937
				l101.542-40.583l43.101-100.494l100.492,43.104L445.06,98.38l40.584,101.542l100.501,43.099l-43.108,100.503L583.619,445.063z"/>
		</g>
	</g>
</g>
<g id="Shape_1_copy_4_1_" style="enable-background:new    ;">
	<g id="Shape_1_copy_4">
		<g>
			<polygon style="fill-rule:evenodd;clip-rule:evenodd;fill:#3498DB;" points="343.955,369.385 257.443,519.227 429.712,518.791
							"/>
		</g>
	</g>
</g>
<g id="Shape_1_copy_5_1_" style="enable-background:new    ;">
	<g id="Shape_1_copy_5">
		<g>
			<polygon style="fill-rule:evenodd;clip-rule:evenodd;fill:#3498DB;" points="257.289,165.208 343.045,314.615 429.557,164.773
							"/>
		</g>
	</g>
</g>
<g id="Shape_1_copy_6_1_" style="enable-background:new    ;">
	<g id="Shape_1_copy_6">
		<g>
			<polygon style="fill-rule:evenodd;clip-rule:evenodd;fill:#3498DB;" points="166.992,256.162 167.427,427.993 316.648,342.453
							"/>
		</g>
	</g>
</g>
<g id="Shape_1_copy_7_1_" style="enable-background:new    ;">
	<g id="Shape_1_copy_7">
		<g>
			<polygon style="fill-rule:evenodd;clip-rule:evenodd;fill:#3498DB;" points="520.573,256.007 371.352,341.547 521.008,427.838
							"/>
		</g>
	</g>
</g>
</svg>
